<svg height="137" xmlns="http://www.w3.org/2000/svg" viewBox="0 0 137 137.14" xmlns:xlink="http://www.w3.org/1999/xlink" width="137"><defs><linearGradient x1="0%" y1="0%" x2="0%" y2="100%" id="lg1"><stop stop-color="#ffffff" offset="0.00"/><stop stop-color="#f7f7f7" offset="0.99"/></linearGradient><linearGradient x1="-22" gradientUnits="userSpaceOnUse" y1="94" x2="94" y2="-22" id="lg2"><stop stop-color="#83d070" offset="0.56"/><stop stop-color="#f7f7f7" offset="0.96"/></linearGradient><linearGradient x1="91" gradientUnits="userSpaceOnUse" y1="9" x2="91" y2="121" id="lg3"><stop stop-color="#ffffff" offset="0.00"/><stop stop-color="#f7f7f7" offset="0.99"/></linearGradient></defs><g transform="translate(1.000000,1.000000)" id="group1"><path fill-rule="nonzero" transform="translate(3.318031,3.318031)" d="M109.1,128.5C119.8,128.5,128.5,119.8,128.5,109.1L128.5,19.4C128.5,8.7,119.8,.0,109.1,.0L19.4,.0C8.7,.0,.0,8.7,.0,19.4L.0,109.1C.0,119.8,8.7,128.5,19.4,128.5L109.1,128.5z" fill="url(#lg1)" id="shape2"/><g transform="translate(0.000000,-0.000000)" id="group3"><path fill-rule="nonzero" transform="translate(32.462300,31.489000)" d="M-14.3,42.9L-14.3,42.9C-14.6,40.6,-14.8,38.2,-14.8,35.8C-14.8,35.2,-14.8,34.6,-14.8,34.1L-22.0,29.3L-19.7,18.2L-11.1,16.9L-11.1,16.9C-10.0,14.1,-8.7,11.5,-7.1,9.0L-11.0,1.3L-3.5,-7.1L4.6,-4.1L4.6,-4.1C6.9,-5.9,9.4,-7.5,12.0,-8.9L12.5,-17.5L23.3,-21.0L28.7,-14.3L28.7,-14.3C31.0,-14.6,33.4,-14.8,35.8,-14.8C36.4,-14.8,37.0,-14.8,37.5,-14.8L42.2,-22.0L53.3,-19.7L54.7,-11.1L54.7,-11.1C57.5,-10.0,60.1,-8.7,62.6,-7.1L70.3,-11.0L78.7,-3.5L75.6,4.6L75.6,4.6C77.5,6.9,79.1,9.4,80.5,12.0L89.1,12.5L92.6,23.3L85.9,28.7L85.9,28.7C86.2,31.0,86.4,33.4,86.4,35.8C86.4,36.4,86.4,37.0,86.4,37.5L93.6,42.2L91.2,53.3L82.7,54.7L82.7,54.7C81.6,57.5,80.3,60.1,78.7,62.6L82.6,70.3L75.0,78.7L67.0,75.6L67.0,75.6C64.7,77.5,62.2,79.1,59.6,80.5L59.1,89.1L48.3,92.6L42.9,85.9L42.9,85.9C40.6,86.2,38.2,86.4,35.8,86.4C35.2,86.4,34.6,86.4,34.1,86.4L29.3,93.6L18.2,91.2L16.9,82.7L16.9,82.7C14.1,81.6,11.5,80.3,9.0,78.7L1.3,82.6L-7.1,75.0L-4.1,67.0L-4.1,67.0C-5.9,64.7,-7.5,62.2,-8.9,59.6L-17.5,59.1L-21.0,48.3L-14.3,42.9zM.0,35.8C.0,55.6,16.0,71.6,35.8,71.6C55.6,71.6,71.6,55.6,71.6,35.8C71.6,16.0,55.6,.0,35.8,.0C16.0,.0,.0,16.0,.0,35.8z" fill="url(#lg2)" id="shape4"/><path fill-rule="nonzero" stroke-width="1" transform="translate(7.534800,6.561500)" stroke="url(#lg3)" d="M91.7,8.5C109.5,19.1,121.4,38.5,121.4,60.7C121.4,94.3,94.3,121.4,60.7,121.4C60.7,121.4,60.7,121.4,60.7,121.4L60.7,95.9L60.7,95.9C80.2,95.9,95.9,80.2,95.9,60.7C95.9,47.8,89.0,36.6,78.7,30.4L91.7,8.5z" fill="url(#lg1)" id="shape6"/><g transform="translate(68.447900,104.098200)" id="group7"><g transform="translate(0.415120,0.000000)" id="shape8"><path fill-opacity="0.12" d="M3.7,13.6L3.7,1.0L1.0,1.0L1.0,13.6L3.7,13.6z" fill="#000000"/><path fill-rule="nonzero" d="M2.7,12.6L2.7,.0L.0,.0L.0,12.6L2.7,12.6z" fill="#000000"/></g><g transform="translate(10.152270,-0.000010)" id="shape9"><path fill-opacity="0.12" d="M3.7,13.6L3.7,1.0L1.0,1.0L1.0,13.6L3.7,13.6z" fill="#000000"/><path fill-rule="nonzero" d="M2.7,12.6L2.7,.0L.0,.0L.0,12.6L2.7,12.6z" fill="#000000"/></g><g transform="translate(14.007970,-0.027750)" id="shape10"><path fill-opacity="0.12" d="M3.7,13.6L3.7,1.0L1.0,1.0L1.0,13.6L3.7,13.6z" fill="#000000"/><path fill-rule="nonzero" d="M2.7,12.6L2.7,.0L.0,.0L.0,12.6L2.7,12.6z" fill="#000000"/></g><g transform="matrix(0.000000,-1.000000,1.000000,0.000000,16.974830,1.822858)" id="shape11"><path fill-opacity="0.12" d="M.8,8.8L.8,1.0L-1.0,1.0L-1.0,8.8L.8,8.8z" fill="#000000"/><path fill-rule="nonzero" d="M1.8,7.8L1.8,.0L.0,.0L.0,7.8L1.8,7.8z" fill="#000000"/></g><g transform="matrix(0.000000,-1.000000,1.000000,0.000000,16.955430,12.557285)" id="shape12"><path fill-opacity="0.12" d="M.8,10.0L.8,1.0L-1.0,1.0L-1.0,10.0L.8,10.0z" fill="#000000"/><path fill-rule="nonzero" d="M1.8,9.0L1.8,.0L.0,.0L.0,9.0L1.8,9.0z" fill="#000000"/></g><g transform="matrix(0.000000,-1.000000,1.000000,0.000000,16.974860,7.173035)" id="shape13"><path fill-opacity="0.12" d="M.8,8.7L.8,1.0L-1.0,1.0L-1.0,8.7L.8,8.7z" fill="#000000"/><path fill-rule="nonzero" d="M1.8,7.7L1.8,.0L.0,.0L.0,7.7L1.8,7.7z" fill="#000000"/></g></g><g transform="translate(94.622100,104.132250)" id="group14"><g id="shape15"><path fill-opacity="0.12" d="M9.6,1.0L12.3,1.0L3.7,13.6L1.0,13.6L9.6,1.0z" fill="#000000"/><path fill-rule="nonzero" d="M8.6,.0L11.3,.0L2.7,12.6L.0,12.6L8.6,.0z" fill="#000000"/></g><g transform="matrix(-1.000000,0.000000,0.000000,1.000000,11.263820,0.000000)" id="shape16"><path fill-opacity="0.12" d="M7.5,1.0L10.3,1.0L1.8,13.6L-1.0,13.6L7.5,1.0z" fill="#000000"/><path fill-rule="nonzero" d="M8.5,.0L11.3,.0L2.8,12.6L.0,12.6L8.5,.0z" fill="#000000"/></g></g><g transform="translate(110.402070,106.070500)" id="shape17"><path fill-opacity="0.12" d="M3.7,11.6L3.7,1.0L1.0,1.0L1.0,11.6L3.7,11.6z" fill="#000000"/><path fill-rule="nonzero" d="M2.7,10.6L2.7,.0L.0,.0L.0,10.6L2.7,10.6z" fill="#000000"/></g><g transform="matrix(0.000000,-1.000000,1.000000,0.000000,105.885550,105.886385)" id="shape18"><path fill-opacity="0.12" d="M.8,12.8L.8,1.0L-1.0,1.0L-1.0,12.8L.8,12.8z" fill="#000000"/><path fill-rule="nonzero" d="M1.8,11.8L1.8,.0L.0,.0L.0,11.8L1.8,11.8z" fill="#000000"/></g><g transform="matrix(0.000000,-1.000000,1.000000,0.000000,71.824020,112.870000)" id="shape19"><path fill-opacity="0.12" d="M7.8,1.0L4.2,1.0L-4.6,7.5L-1.0,7.5L7.8,1.0z" fill="#000000"/><path fill-rule="nonzero" d="M8.8,.0L5.2,.0L-3.6,6.5L.0,6.5L8.8,.0z" fill="#000000"/></g><path fill-rule="nonzero" transform="translate(55.832400,42.999600)" d="M65.8,48.3C67.3,48.3,68.5,47.1,68.5,45.6L68.5,2.7C68.5,1.2,67.3,.0,65.8,.0L2.7,.0C1.2,.0,.0,1.2,.0,2.7L.0,45.6C.0,47.1,1.2,48.3,2.7,48.3L65.8,48.3z" fill="#595959" id="shape20"/><path fill-rule="nonzero" transform="translate(57.516200,45.217300)" d="M65.1,40.2L65.1,.0L.0,.0L.0,40.2L65.1,40.2z" fill="#ffffff" id="shape21"/><path fill-rule="nonzero" transform="translate(55.832400,95.209080)" d="M67.3,2.4C68.0,2.4,68.5,1.8,68.5,1.2L68.5,1.2C68.5,.5,68.0,.0,67.3,.0L1.2,.0C.5,.0,.0,.5,.0,1.2L.0,1.2C.0,1.8,.5,2.4,1.2,2.4L67.3,2.4z" fill="#595959" id="shape22"/><path fill-rule="nonzero" transform="translate(88.636940,85.462100)" d="M1.5,11.1C2.3,11.1,2.9,10.4,2.9,9.6L2.9,1.5C2.9,.6,2.3,.0,1.5,.0L1.5,.0C.6,.0,.0,.6,.0,1.5L.0,9.6C.0,10.4,.6,11.1,1.5,11.1L1.5,11.1z" fill="#595959" id="shape23"/><g transform="translate(71.168800,57.621350)" id="group24"><g transform="translate(0.000000,-0.000020)" id="group25"><path fill-rule="evenodd" stroke-width="1" transform="translate(-0.000010,-0.000020)" stroke="#000000" d="M9.6,.0L9.6,1.9L1.6,8.9L9.6,16.0L9.6,17.8L.0,9.4L.0,8.5L9.6,.0z" fill="#000000" id="shape26"/><path fill-rule="evenodd" stroke-width="1" transform="translate(28.226800,0.000000)" stroke="#000000" d="M.0,17.8L.0,15.9L8.0,8.9L.0,1.8L.0,.0L9.6,8.4L9.6,9.3L.0,17.8z" fill="#000000" id="shape27"/></g><path fill-rule="nonzero" stroke-width="1" transform="matrix(0.965926,0.258819,-0.258819,0.965926,21.222918,0.144498)" stroke="#000000" d="M1.1,18.2L1.1,.0L.0,.0L.0,18.2L1.1,18.2z" fill="#000000" id="shape28"/></g></g></g></svg>