<svg height="294" xmlns="http://www.w3.org/2000/svg" viewBox="0 0 302 293.612" xmlns:xlink="http://www.w3.org/1999/xlink" width="302"><defs/><g transform="translate(1.000000,1.000000)" id="group1"><g transform="translate(0.000000,258.021700)" id="shape2"><text style="fill:#8484f0;font-family:微软雅黑,PingFang SC,Mircrosoft YaHei,Arial;font-size:14.00pt;font-weight:bold" xml:space="preserve"><tspan x="18.0" y="24.0">OpenHarmony</tspan><tspan x="159.0" style="fill:#191919">PCDeveloper</tspan></text></g><g transform="translate(7.376000,0.000500)" id="group3"><path fill-rule="nonzero" d="M237.9,118.9C237.9,184.6,184.6,237.9,118.9,237.9C53.2,237.9,.0,184.6,.0,118.9L.0,118.9C.0,53.2,53.2,.0,118.9,.0C184.6,.0,237.9,53.2,237.9,118.9zM33.3,118.9C33.3,166.2,71.6,204.6,118.9,204.6C166.2,204.6,204.6,166.2,204.6,118.9L204.6,118.9C204.6,71.6,166.2,33.3,118.9,33.3C71.6,33.3,33.3,71.6,33.3,118.9z" fill="#9cb0fe" id="shape4"/><path fill-rule="nonzero" transform="translate(45.354000,20.147000)" d="M118.9,.0C184.6,.0,237.9,53.2,237.9,118.9C237.9,184.6,184.6,237.9,118.9,237.9L118.9,204.6L118.9,204.6C166.2,204.6,204.6,166.2,204.6,118.9C204.6,71.6,166.2,33.3,118.9,33.3L118.9,.0z" fill="#000000" id="shape5"/><g transform="matrix(0.000000,-1.000000,1.000000,0.000000,99.497800,258.020000)" id="group6"><g transform="translate(-0.001250,0.137200)" id="shape7"><path fill-opacity="0.20" d="M11.5,64.5L11.5,2.0L-2.0,2.0L-2.0,64.5L11.5,64.5z" fill="#000000"/><path fill-rule="nonzero" d="M13.5,62.5L13.5,.0L.0,.0L.0,62.5L13.5,62.5z" fill="#000000"/></g><g transform="translate(48.473680,0.137200)" id="shape8"><path fill-opacity="0.20" d="M11.5,64.5L11.5,2.0L-2.0,2.0L-2.0,64.5L11.5,64.5z" fill="#000000"/><path fill-rule="nonzero" d="M13.5,62.5L13.5,.0L.0,.0L.0,62.5L13.5,62.5z" fill="#000000"/></g><g transform="translate(67.668480,-0.001100)" id="shape9"><path fill-opacity="0.20" d="M11.5,64.7L11.5,2.0L-2.0,2.0L-2.0,64.7L11.5,64.7z" fill="#000000"/><path fill-rule="nonzero" d="M13.5,62.7L13.5,.0L.0,.0L.0,62.7L13.5,62.7z" fill="#000000"/></g><g transform="matrix(0.000000,-1.000000,1.000000,0.000000,82.439200,9.211970)" id="shape10"><path fill-opacity="0.20" d="M6.9,36.8L6.9,-2.0L-2.0,-2.0L-2.0,36.8L6.9,36.8z" fill="#000000"/><path fill-rule="nonzero" d="M8.9,38.8L8.9,.0L.0,.0L.0,38.8L8.9,38.8z" fill="#000000"/></g><g transform="matrix(0.000000,-1.000000,1.000000,0.000000,82.341600,62.651660)" id="shape11"><path fill-opacity="0.20" d="M6.9,42.6L6.9,-2.0L-2.0,-2.0L-2.0,42.6L6.9,42.6z" fill="#000000"/><path fill-rule="nonzero" d="M8.9,44.6L8.9,.0L.0,.0L.0,44.6L8.9,44.6z" fill="#000000"/></g><g transform="matrix(0.000000,-1.000000,1.000000,0.000000,82.439200,35.847060)" id="shape12"><path fill-opacity="0.20" d="M6.9,36.3L6.9,-2.0L-2.0,-2.0L-2.0,36.3L6.9,36.3z" fill="#000000"/><path fill-rule="nonzero" d="M8.9,38.3L8.9,.0L.0,.0L.0,38.3L8.9,38.3z" fill="#000000"/></g><g transform="translate(128.235400,0.306600)" id="shape13"><path fill-opacity="0.20" d="M37.1,2.0L54.1,2.0L15.0,64.7L-2.0,64.7L37.1,2.0z" fill="#000000"/><path fill-rule="nonzero" d="M39.1,.0L56.1,.0L17.0,62.7L.0,62.7L39.1,.0z" fill="#000000"/></g><g transform="matrix(-1.000000,0.000000,0.000000,1.000000,184.310600,0.306600)" id="shape14"><path fill-opacity="0.20" d="M41.7,2.0L58.1,2.0L18.4,64.7L2.0,64.7L41.7,2.0z" fill="#000000"/><path fill-rule="nonzero" d="M39.7,.0L56.1,.0L16.4,62.7L.0,62.7L39.7,.0z" fill="#000000"/></g><g transform="translate(206.795780,9.956000)" id="shape15"><path fill-opacity="0.20" d="M11.5,54.5L11.5,2.0L-2.0,2.0L-2.0,54.5L11.5,54.5z" fill="#000000"/><path fill-rule="nonzero" d="M13.5,52.5L13.5,.0L.0,.0L.0,52.5L13.5,52.5z" fill="#000000"/></g><g transform="matrix(0.000000,-1.000000,1.000000,0.000000,184.311200,9.042350)" id="shape16"><path fill-opacity="0.20" d="M6.9,56.6L6.9,-2.0L-2.0,-2.0L-2.0,56.6L6.9,56.6z" fill="#000000"/><path fill-rule="nonzero" d="M8.9,58.6L8.9,.0L.0,.0L.0,58.6L8.9,58.6z" fill="#000000"/></g><g transform="matrix(0.000000,-1.000000,1.000000,0.000000,14.740300,63.022300)" id="shape17"><path fill-opacity="0.20" d="M39.6,-2.0L58.5,-2.0L16.9,30.4L-2.0,30.4L39.6,-2.0z" fill="#000000"/><path fill-rule="nonzero" d="M41.6,.0L60.5,.0L18.9,32.4L.0,32.4L41.6,.0z" fill="#000000"/></g></g></g></g></svg>